<?xml version="1.0" encoding="UTF-8" standalone="no" ?>
<!DOCTYPE svg PUBLIC "-//W3C//DTD SVG 1.1//EN" "http://www.w3.org/Graphics/SVG/1.1/DTD/svg11.dtd">
<svg xmlns="http://www.w3.org/2000/svg" xmlns:xlink="http://www.w3.org/1999/xlink" version="1.1" width="1080" height="1080" viewBox="0 0 1080 1080" xml:space="preserve">
<desc>Created with Fabric.js 5.2.4</desc>
<defs>
</defs>
<rect x="0" y="0" width="100%" height="100%" fill="transparent"></rect>
<g transform="matrix(1 0 0 1 540 540)" id="6d2374be-fe79-4e76-b870-3f2a6b153d8d"  >
<rect style="stroke: none; stroke-width: 1; stroke-dasharray: none; stroke-linecap: butt; stroke-dashoffset: 0; stroke-linejoin: miter; stroke-miterlimit: 4; fill: rgb(255,255,255); fill-rule: nonzero; opacity: 1; visibility: hidden;" vector-effect="non-scaling-stroke"  x="-540" y="-540" rx="0" ry="0" width="1080" height="1080" />
</g>
<g transform="matrix(1 0 0 1 540 540)" id="c19d948b-28e1-4a78-8b0e-74a801aed059"  >
</g>
<g transform="matrix(1 0 0 1 540 540)"  >
<g style="" vector-effect="non-scaling-stroke"   >
		<g transform="matrix(1 0 0 1 -55.9 8.41)"  >
<path style="stroke: none; stroke-width: 1; stroke-dasharray: none; stroke-linecap: butt; stroke-dashoffset: 0; stroke-linejoin: miter; stroke-miterlimit: 4; fill: rgb(248,248,248); fill-rule: nonzero; opacity: 1;" vector-effect="non-scaling-stroke"  transform=" translate(-19.98, -24.41)" d="M 35.669 16.819 L 4.286 16.819 C 3.6289999999999996 16.819 3.0919999999999996 17.375999999999998 3.1519999999999997 18.034 C 3.842 25.85 11.112 32 19.978 32 C 28.844 32 36.114000000000004 25.852 36.803 18.034 C 36.861 17.375999999999998 36.326 16.819 35.669 16.819 z" stroke-linecap="round" />
</g>
		<g transform="matrix(1 0 0 1 -55.89 -13.45)"  >
<path style="stroke: none; stroke-width: 1; stroke-dasharray: none; stroke-linecap: butt; stroke-dashoffset: 0; stroke-linejoin: miter; stroke-miterlimit: 4; fill: rgb(248,248,248); fill-rule: evenodd; opacity: 1;" vector-effect="non-scaling-stroke"  transform=" translate(-19.98, -2.55)" d="M 0.225 3.331 C 1.79 1.28 4.606 0 7.711 0 C 10.815000000000001 0 13.633 1.279 15.197 3.331 C 15.374268214188143 3.5635429283002256 15.451654744200571 3.8570960535975285 15.412063340835662 4.14680755499762 C 15.372471937470753 4.436519056397711 15.219160994821681 4.698545519304097 14.985999999999999 4.875 C 14.500333194761286 5.243686897565244 13.80789036595117 5.149750854897205 13.437999999999999 4.665 C 12.366 3.257 10.256999999999998 2.204 7.7109999999999985 2.204 C 5.164999999999999 2.204 3.0559999999999983 3.257 1.9839999999999982 4.664 C 1.6144138770535503 5.149076256974217 0.9219280515019763 5.243465474798107 0.43599999999999817 4.875 C 0.2029930417487181 4.698397059648132 0.04987873666598608 4.4362983401756475 0.010476023483182328 4.146594582298272 C -0.028926689699621422 3.856890824420897 0.048624296177046666 3.5634192350640372 0.22599999999999765 3.3310000000000004 z M 24.767 3.331 C 26.331 1.28 29.148 0 32.253 0 C 35.355 0 38.173 1.279 39.738 3.33 C 39.91569184284995 3.5624839589834605 39.993431062449766 3.8561856007659085 39.954020618031834 4.146133870412094 C 39.91461017361391 4.4360821400582795 39.761298370875046 4.698378788513141 39.528 4.875 C 39.04250353867607 5.243007911656339 38.35082370567073 5.1491147216556135 37.981 4.665 C 36.906 3.257 34.795 2.204 32.253 2.204 C 29.707 2.204 27.598 3.257 26.526 4.664 C 26.156413877053552 5.149076256974215 25.46392805150198 5.243465474798106 24.978 4.875 C 24.74499304174872 4.698397059648133 24.59187873666599 4.4362983401756475 24.552476023483184 4.146594582298272 C 24.51307331030038 3.856890824420897 24.59062429617705 3.5634192350640372 24.768 3.3310000000000004 z" stroke-linecap="round" />
</g>
		<g transform="matrix(1 0 0 1 25.69 0.09)"  >
<path style="stroke: none; stroke-width: 1; stroke-dasharray: none; stroke-linecap: butt; stroke-dashoffset: 0; stroke-linejoin: miter; stroke-miterlimit: 4; fill: rgb(248,248,248); fill-rule: nonzero; opacity: 1;" vector-effect="non-scaling-stroke"  transform=" translate(-101.56, -16.09)" d="M 57.953 18.218 C 57.747 18.37 57.503 18.488 57.224000000000004 18.588 C 56.947 18.686 56.695 18.732 56.464000000000006 18.732 C 55.71600000000001 18.732 55.074000000000005 18.474999999999998 54.55100000000001 17.968 C 54.03978451057926 17.479808349868836 53.75651606134727 16.799746451904706 53.77000000000001 16.093 C 53.77000000000001 15.349 54.02800000000001 14.722999999999999 54.55000000000001 14.21 C 55.07400000000001 13.690000000000001 55.71600000000001 13.433000000000002 56.46300000000001 13.433000000000002 C 56.69500000000001 13.433000000000002 56.95300000000001 13.486000000000002 57.23800000000001 13.585 C 57.522000000000006 13.684000000000001 57.76800000000001 13.815000000000001 57.986000000000004 13.98 C 58.17100000000001 14.111 58.383 14.092 58.482000000000006 13.953000000000001 L 59.48800000000001 12.486 C 59.574000000000005 12.361 59.534000000000006 12.163 59.37500000000001 12.051 C 58.944133996682 11.748411069869295 58.46830611852332 11.515559129493774 57.96500000000001 11.361 C 57.41600000000001 11.176 56.91300000000001 11.084000000000001 56.46300000000001 11.084000000000001 C 55.777294112162494 11.080809751258576 55.09790729970853 11.215122959926903 54.46500000000001 11.479000000000001 C 53.860037760297686 11.722519295214338 53.308902929351504 12.082693722343162 52.84300000000001 12.539000000000001 C 52.39300000000001 12.979000000000001 52.03600000000001 13.512000000000002 51.77100000000001 14.131000000000002 C 51.50580622334807 14.750944291307462 51.370684573179624 15.418724335716743 51.37400000000001 16.093000000000004 C 51.37400000000001 16.783000000000005 51.50600000000001 17.435000000000002 51.77100000000001 18.054000000000002 C 52.01984955130124 18.650463474496224 52.384167802599386 19.191843114718186 52.84300000000001 19.647000000000002 C 53.30000000000001 20.087000000000003 53.83600000000001 20.443 54.46500000000001 20.707 C 55.099291290073786 20.965503354497947 55.77805908244361 21.097316118982178 56.46300000000001 21.095000000000002 C 56.92700000000001 21.095000000000002 57.43000000000001 21.009000000000004 57.973000000000006 20.832 C 58.522000000000006 20.654 58.97200000000001 20.43 59.32900000000001 20.16 C 59.495000000000005 20.048000000000002 59.56700000000001 19.85 59.48800000000001 19.726 L 58.50200000000001 18.238 C 58.39600000000001 18.087 58.15800000000001 18.08 57.95200000000001 18.218 z M 60.725 20.542 C 60.725 20.759 60.858000000000004 20.884 61.076 20.884 L 67.43 20.884 C 67.64800000000001 20.884 67.787 20.753 67.787 20.542 L 67.787 19.12 C 67.787 18.85 67.602 18.673000000000002 67.304 18.673000000000002 L 63.101 18.673000000000002 L 63.101 17.033 L 66.291 17.033 C 66.53 17.033 66.675 16.903000000000002 66.675 16.685000000000002 L 66.675 15.435000000000002 C 66.675 15.204000000000002 66.53 15.072000000000003 66.291 15.072000000000003 L 63.101 15.072000000000003 L 63.101 13.48 L 67.304 13.48 C 67.536 13.48 67.654 13.361 67.654 13.13 L 67.654 11.617 C 67.654 11.4 67.52199999999999 11.268 67.304 11.268 L 61.076 11.268 C 60.858 11.268 60.726 11.4 60.726 11.617 L 60.726 20.542 z M 75.173 15.79 C 75.723 15.427999999999999 76.06700000000001 14.75 76.06700000000001 14.046 C 76.06700000000001 13.17 75.78200000000001 12.485999999999999 75.21900000000001 11.998999999999999 C 74.65700000000001 11.511 73.86900000000001 11.267999999999999 72.85000000000001 11.267999999999999 L 69.376 11.267999999999999 C 69.203 11.267999999999999 69.117 11.353 69.117 11.517999999999999 L 69.117 20.634 C 69.117 20.799 69.203 20.884 69.375 20.884 L 73.128 20.884 C 74.194 20.884 75.021 20.628 75.61 20.121 C 76.206 19.613999999999997 76.503 18.903 76.503 17.988 C 76.503 17.508 76.384 17.067 76.146 16.665 C 75.92226442945868 16.27785392345676 75.58163769325812 15.971534916082161 75.173 15.79 z M 72.82300000000001 13.407 C 73.346 13.407 73.671 13.717 73.671 14.217 C 73.671 14.717 73.346 15.033000000000001 72.82400000000001 15.033000000000001 L 71.52 15.033000000000001 L 71.52 13.407000000000002 L 72.824 13.407000000000002 z M 71.52000000000001 18.745 L 71.52000000000001 16.817 L 73.09500000000001 16.817 C 73.71000000000001 16.817 74.10100000000001 17.179 74.10100000000001 17.764 C 74.10100000000001 18.364 73.71100000000001 18.745 73.09500000000001 18.745 L 71.52 18.745 z M 77.695 20.542 C 77.695 20.759 77.827 20.884 78.04499999999999 20.884 L 84.4 20.884 C 84.61800000000001 20.884 84.757 20.753 84.757 20.542 L 84.757 19.12 C 84.757 18.85 84.572 18.673000000000002 84.274 18.673000000000002 L 80.07 18.673000000000002 L 80.07 17.033 L 83.25999999999999 17.033 C 83.499 17.033 83.64399999999999 16.903000000000002 83.64399999999999 16.685000000000002 L 83.64399999999999 15.435000000000002 C 83.64399999999999 15.204000000000002 83.499 15.072000000000003 83.25999999999999 15.072000000000003 L 80.07 15.072000000000003 L 80.07 13.48 L 84.273 13.48 C 84.505 13.48 84.62299999999999 13.361 84.62299999999999 13.13 L 84.62299999999999 11.617 C 84.62299999999999 11.4 84.49099999999999 11.268 84.273 11.268 L 78.045 11.268 C 77.827 11.268 77.69500000000001 11.4 77.69500000000001 11.617 L 77.69500000000001 20.542 z M 88.145 11.268 L 86.43 11.268 C 86.224 11.268 86.08600000000001 11.419 86.08600000000001 11.623000000000001 L 86.08600000000001 20.542 C 86.08600000000001 20.759 86.21100000000001 20.891000000000002 86.43 20.891000000000002 L 88.12400000000001 20.891000000000002 C 88.355 20.891000000000002 88.48800000000001 20.759 88.48800000000001 20.542 L 88.48800000000001 17.922 L 89.64600000000002 17.922 C 90.67800000000001 17.922 91.51200000000001 17.62 92.15400000000001 17.021 C 92.796 16.415 93.12100000000001 15.612 93.12100000000001 14.611 C 93.12100000000001 13.598 92.796 12.788 92.15400000000001 12.183 C 91.51200000000001 11.571 90.67900000000002 11.268 89.64600000000002 11.268 L 88.14400000000002 11.268 z M 88.48899999999999 15.757000000000001 L 88.48899999999999 13.433000000000002 L 89.54799999999999 13.433000000000002 C 89.88499999999999 13.433000000000002 90.16999999999999 13.545000000000002 90.38799999999999 13.769000000000002 C 90.61299999999999 13.986000000000002 90.72599999999998 14.263000000000002 90.72599999999998 14.599000000000002 C 90.72599999999998 14.934000000000003 90.61299999999999 15.211000000000002 90.38799999999999 15.428000000000003 C 90.16449696889208 15.647497950243613 89.86112314594402 15.766319364231602 89.54799999999999 15.757000000000003 L 88.48799999999999 15.757000000000003 z M 100.388 11.268 L 97.43 11.268 C 96.39800000000001 11.268 95.557 11.571000000000002 94.915 12.183 C 94.27300000000001 12.788 93.95500000000001 13.597999999999999 93.95500000000001 14.605 C 93.95500000000001 15.809000000000001 94.50500000000001 16.803 95.45100000000001 17.363 L 93.757 20.489 C 93.65100000000001 20.68 93.77000000000001 20.891000000000002 93.982 20.891000000000002 L 95.961 20.891000000000002 C 96.15299999999999 20.891000000000002 96.239 20.825000000000003 96.365 20.595000000000002 L 97.78099999999999 17.883000000000003 L 98.767 17.883000000000003 L 98.767 20.542 C 98.767 20.759 98.899 20.891000000000002 99.131 20.891000000000002 L 100.825 20.891000000000002 C 101.044 20.891000000000002 101.169 20.759 101.169 20.542 L 101.169 11.617 C 101.169 11.413 101.03 11.268 100.825 11.268 L 100.388 11.268 z M 97.52900000000001 15.823 C 97.19200000000001 15.823 96.90700000000001 15.704 96.68200000000002 15.467 C 96.46427210768874 15.228192204355919 96.34619587994209 14.915111297451897 96.35200000000002 14.592 C 96.35200000000002 14.25 96.46400000000001 13.973 96.68200000000002 13.756 C 96.90100000000001 13.539 97.18500000000002 13.426 97.52900000000001 13.426 L 98.76700000000001 13.426 L 98.76700000000001 15.823 L 97.52900000000001 15.823 z M 109.038 11.268 C 108.87299999999999 11.268 108.78699999999999 11.353000000000002 108.78699999999999 11.525 L 108.78699999999999 14.849 L 105.16699999999999 14.849 L 105.16699999999999 11.525 C 105.16699999999999 11.354000000000001 105.08099999999999 11.268 104.91499999999999 11.268 L 103.04899999999999 11.268 C 102.877 11.268 102.791 11.353000000000002 102.791 11.525 L 102.791 20.634999999999998 C 102.791 20.805 102.877 20.891 103.04899999999999 20.891 L 104.91499999999999 20.891 C 105.08099999999999 20.891 105.16699999999999 20.805 105.16699999999999 20.633999999999997 L 105.16699999999999 17.013999999999996 L 108.78699999999999 17.013999999999996 L 108.78699999999999 20.633999999999997 C 108.78699999999999 20.804999999999996 108.87299999999999 20.891 109.038 20.891 L 110.911 20.891 C 111.077 20.891 111.163 20.805 111.163 20.633999999999997 L 111.163 11.523999999999997 C 111.163 11.353999999999997 111.077 11.267999999999997 110.911 11.267999999999997 L 109.038 11.267999999999997 z M 112.341 16.1 C 112.341 16.784000000000002 112.473 17.435000000000002 112.731 18.054000000000002 C 112.98181013093142 18.645880131547596 113.3436620231579 19.18424514193334 113.797 19.64 C 114.75511127055681 20.57217742005505 116.04024416775347 21.09197418964744 117.377 21.088 C 118.26776359904068 21.098563359030017 119.14523513549666 20.871428712693262 119.919 20.43 C 120.67729858493928 20.001183257706636 121.30601184434106 19.375924466763102 121.73899999999999 18.62 C 122.18320766130194 17.85493122325682 122.41390164129106 16.984648544255933 122.407 16.1 C 122.407 15.408000000000001 122.27499999999999 14.756000000000002 122.00999999999999 14.138000000000002 C 121.76784058015791 13.537612305495088 121.40540953543635 12.993114961312477 120.945 12.538 C 120.48535944759561 12.085168578866266 119.94098924676743 11.727352210906163 119.34299999999999 11.485000000000003 C 118.72149575959598 11.220527229560682 118.05242442963748 11.086100385545622 117.377 11.090000000000003 C 116.682 11.090000000000003 116.027 11.222000000000003 115.405 11.485000000000003 C 114.80597899809975 11.72877020074811 114.25990290131892 12.086368540244504 113.797 12.538000000000004 C 112.86014819623644 13.485539350600083 112.33665053155231 14.765519904360715 112.341 16.098000000000003 z M 114.737 16.1 C 114.737 15.362000000000002 114.99499999999999 14.743000000000002 115.50399999999999 14.236 C 115.99754973590707 13.73597542904725 116.67453870893448 13.46019188050485 117.377 13.473 C 118.07774383798026 13.45995444522222 118.7529660418389 13.735902244656685 119.244 14.236 C 119.753 14.743 120.011 15.362 120.011 16.099 C 120.011 16.829 119.753 17.442 119.244 17.949 C 118.734 18.455000000000002 118.112 18.706000000000003 117.377 18.706000000000003 C 116.636 18.706000000000003 116.00699999999999 18.456000000000003 115.49799999999999 17.949 C 114.98799999999999 17.442 114.737 16.829 114.737 16.099 z M 129.303 11.261 C 129.118 11.261 128.966 11.425999999999998 128.966 11.616999999999999 L 128.966 14.328999999999999 C 128.966 14.822 128.80700000000002 15.216999999999999 128.496 15.512999999999998 C 128.185 15.808999999999997 127.77400000000002 15.960999999999999 127.25200000000001 15.960999999999999 C 126.21300000000001 15.960999999999999 125.59700000000001 15.348999999999998 125.59700000000001 14.314999999999998 L 125.59700000000001 11.616999999999997 C 125.59700000000001 11.412999999999997 125.438 11.260999999999997 125.22600000000001 11.260999999999997 L 123.52600000000001 11.260999999999997 C 123.34700000000001 11.260999999999997 123.20100000000001 11.425999999999997 123.20100000000001 11.616999999999997 L 123.20100000000001 14.321999999999997 C 123.20100000000001 15.519999999999998 123.55900000000001 16.480999999999998 124.27300000000001 17.205 C 124.98800000000001 17.921999999999997 125.915 18.284999999999997 127.05300000000001 18.284999999999997 C 127.79400000000001 18.284999999999997 128.489 17.987999999999996 128.966 17.533999999999995 L 128.966 20.541999999999994 C 128.966 20.731999999999996 129.11100000000002 20.883999999999993 129.303 20.883999999999993 L 131.017 20.883999999999993 C 131.10903059939866 20.883471092952455 131.19708158449163 20.84640404728776 131.26178196451525 20.780953517930534 C 131.32648234453885 20.715502988573313 131.36253196431372 20.62703058177752 131.362 20.534999999999993 L 131.362 11.616999999999994 C 131.362 11.412999999999993 131.22299999999998 11.260999999999994 131.037 11.260999999999994 L 129.303 11.260999999999994 z M 138.714 15.803 L 141.792 11.723 C 141.951 11.511000000000001 141.88400000000001 11.288 141.64000000000001 11.288 L 139.46200000000002 11.288 C 139.23100000000002 11.288 139.10500000000002 11.314 138.95300000000003 11.518 L 136.44400000000005 14.868 L 135.37900000000005 14.868 L 135.37900000000005 11.525 C 135.37900000000005 11.360000000000001 135.29300000000003 11.275 135.12700000000004 11.275 L 133.24100000000004 11.275 C 133.06900000000005 11.275 132.98300000000003 11.360000000000001 132.98300000000003 11.525 L 132.98300000000003 20.628 C 132.98300000000003 20.798000000000002 133.06900000000005 20.884 133.24100000000004 20.884 L 135.12700000000004 20.884 C 135.29300000000003 20.884 135.37900000000005 20.799 135.37900000000005 20.628 L 135.37900000000005 17.119 L 136.74200000000005 17.119 L 139.17800000000005 20.753 C 139.26450622323932 20.851984610825244 139.39058382078002 20.90732681207131 139.52200000000005 20.904 L 141.71900000000005 20.904 C 141.95100000000005 20.904 142.01000000000005 20.674 141.87800000000004 20.483 L 138.71400000000006 15.803 z M 148.192 11.584 C 148.12529883761684 11.397686731842185 147.95268368541733 11.270101619346885 147.755 11.261 L 146.358 11.261 C 146.15643522159544 11.267617058075915 145.97876056905775 11.395147975341857 145.90800000000002 11.584 L 142.37400000000002 20.503 C 142.288 20.733 142.38700000000003 20.891000000000002 142.63200000000003 20.891000000000002 L 144.50500000000002 20.891000000000002 C 144.70292109002648 20.89383311234642 144.8785935517814 20.764734279986993 144.93500000000003 20.575000000000003 L 145.36600000000004 19.318 L 148.72100000000003 19.318 L 149.15800000000004 20.581000000000003 C 149.23100000000005 20.766000000000002 149.39600000000004 20.897000000000002 149.58100000000005 20.897000000000002 L 151.46100000000004 20.897000000000002 C 151.71900000000005 20.897000000000002 151.80500000000004 20.727 151.71900000000005 20.509 L 148.19200000000006 11.584 z M 147.04000000000002 14.414 L 148.03900000000002 17.33 L 146.04100000000003 17.33 L 147.04000000000002 14.413999999999998 z" stroke-linecap="round" />
</g>
</g>
</g>
</svg>