<svg width="182" height="198" viewBox="0 0 182 198" fill="none" xmlns="http://www.w3.org/2000/svg">
<g filter="url(#filter0_f_20201_33672)">
<path d="M35.4171 36.9548L15.0251 17.1635C14.5979 16.7488 13.9225 16.8043 13.5763 17.3076C9.44641 23.2682 10.5671 32.2027 16.3284 37.7943C22.0896 43.3858 30.415 43.6229 35.4421 38.5294C35.8648 38.1004 35.8443 37.3695 35.4171 36.9548Z" fill="#FF6633"/>
<path d="M140.993 172.043L161.385 191.834C161.812 192.249 162.488 192.193 162.834 191.69C166.964 185.729 165.843 176.795 160.082 171.203C154.321 165.612 145.995 165.375 140.968 170.468C140.545 170.897 140.566 171.628 140.993 172.043Z" fill="#FF6633"/>
<path d="M164 75.3534L142.793 56.5929C142.349 56.1999 141.676 56.2888 141.352 56.8087C137.478 62.9676 138.976 71.8373 144.967 77.1376C150.959 82.4379 159.285 82.2623 164.092 76.9251C164.496 76.4756 164.445 75.7464 164 75.3534Z" fill="#FF6633"/>
<path d="M26.4324 140.618L45.7219 119.571C46.1261 119.13 46.1089 118.398 45.662 117.998C40.3705 113.233 32.0703 113.994 26.6205 119.94C21.1707 125.886 20.5321 134.874 24.9782 140.565C25.3528 141.044 26.0282 141.059 26.4324 140.618Z" fill="#FF6633"/>
<path d="M22.3291 92.7167C18.3079 93.179 14.3536 86.4754 13.4969 77.7439C12.6402 69.0125 15.2055 61.5595 19.2268 61.0972C23.248 60.6349 27.2023 67.3385 28.059 76.0699C28.9157 84.8014 26.3504 92.2544 22.3291 92.7167Z" fill="#FCA21C"/>
<path d="M156.413 107.772C160.434 107.31 164.389 114.013 165.245 122.745C166.102 131.476 163.537 138.929 159.515 139.391C155.494 139.854 151.54 133.15 150.683 124.419C149.826 115.687 152.392 108.234 156.413 107.772Z" fill="#FCA21C"/>
<path d="M112.561 25.1609C115.176 27.1955 113.457 34.6247 108.722 41.7544C103.988 48.8841 98.0295 53.0145 95.4145 50.9799C92.7996 48.9453 94.518 41.5161 99.2528 34.3864C103.988 27.2566 109.946 23.1262 112.561 25.1609Z" fill="#FCA21C"/>
<path d="M73.6518 146.323C70.4503 145.945 68.5668 138.563 69.445 129.834C70.3232 121.105 73.6305 114.335 76.832 114.712C80.0335 115.09 81.917 122.472 81.0388 131.201C80.1606 139.93 76.8534 146.7 73.6518 146.323Z" fill="#FCA21C"/>
<path fill-rule="evenodd" clip-rule="evenodd" d="M75.3506 71.847C76.6902 73.8745 76.2565 76.6897 74.3819 78.1349C70.1605 81.3893 64.4795 82.3555 59.0988 80.4632C53.7181 78.5708 49.6477 74.1741 47.9996 68.8568C47.2675 66.495 48.4451 63.9414 50.6298 63.1532C52.8145 62.3649 55.1789 63.6405 55.911 66.0023C56.6887 68.5114 58.7177 70.8505 61.6724 71.8896C64.628 72.9291 67.5396 72.3277 69.5308 70.7926C71.4054 69.3475 74.011 69.8195 75.3506 71.847Z" fill="#70C05B"/>
<path fill-rule="evenodd" clip-rule="evenodd" d="M105.86 127.33C104.521 125.302 104.954 122.487 106.829 121.042C111.05 117.787 116.731 116.821 122.112 118.713C127.493 120.606 131.563 125.002 133.211 130.32C133.943 132.682 132.766 135.235 130.581 136.023C128.396 136.812 126.032 135.536 125.3 133.174C124.522 130.665 122.493 128.326 119.539 127.287C116.583 126.247 113.671 126.849 111.68 128.384C109.806 129.829 107.2 129.357 105.86 127.33Z" fill="#70C05B"/>
<path fill-rule="evenodd" clip-rule="evenodd" d="M147.528 20.719C147.16 18.2584 148.704 15.9448 150.976 15.5514C156.094 14.6654 161.58 16.5313 165.624 20.8138C169.668 25.0964 171.511 30.9926 170.805 36.549C170.492 39.0169 168.389 40.7386 166.108 40.3943C163.827 40.0501 162.232 37.7704 162.546 35.3024C162.879 32.6805 162.021 29.6093 159.8 27.2576C157.579 24.9052 154.723 24.0441 152.309 24.462C150.037 24.8554 147.896 23.1796 147.528 20.719Z" fill="#70C05B"/>
<path fill-rule="evenodd" clip-rule="evenodd" d="M82.8391 177.716C84.4673 179.479 84.4653 182.333 82.8347 184.091C79.1625 188.049 73.7044 190.009 68.1101 189.096C62.5157 188.183 57.8351 184.567 55.4049 179.614C54.3254 177.414 55.1008 174.686 57.1367 173.521C59.1727 172.356 61.6982 173.195 62.7777 175.396C63.9245 177.733 66.28 179.681 69.3519 180.182C72.4249 180.684 75.2062 179.575 76.9383 177.707C78.569 175.949 81.2109 175.953 82.8391 177.716Z" fill="#70C05B"/>
<path d="M58.3015 24.4196C57.216 22.6677 57.648 20.2949 59.2665 19.1199L76.4101 6.67358C78.0286 5.49855 80.2207 5.96618 81.3062 7.71807L84.6969 13.1899C85.7824 14.9418 85.3504 17.3145 83.7319 18.4895L66.5883 30.9359C64.9698 32.1109 62.7777 31.6433 61.6921 29.8914L58.3015 24.4196Z" fill="#1CB9FC"/>
<path d="M97.0378 160.078C96.6221 158.017 97.8286 155.982 99.7326 155.532L119.9 150.766C121.804 150.316 123.685 151.622 124.1 153.683L125.399 160.12C125.814 162.181 124.608 164.216 122.704 164.666L102.536 169.432C100.632 169.882 98.7518 168.576 98.3362 166.515L97.0378 160.078Z" fill="#1CB9FC"/>
<path d="M117.36 98.8288C115.906 100.233 113.675 100.095 112.378 98.5209L98.6367 81.8465C97.3395 80.2723 97.4668 77.8578 98.9211 76.4537L103.464 72.0679C104.918 70.6637 107.149 70.8016 108.446 72.3758L122.187 89.0502C123.484 90.6244 123.357 93.0389 121.902 94.443L117.36 98.8288Z" fill="#1CB9FC"/>
<path d="M21.4206 157.004C23.3414 156.647 25.1657 158.043 25.4954 160.122L28.9879 182.144C29.3176 184.223 28.0278 186.198 26.1071 186.554L20.1079 187.669C18.1871 188.026 16.3628 186.63 16.0331 184.551L12.5406 162.529C12.2109 160.45 13.5007 158.475 15.4214 158.118L21.4206 157.004Z" fill="#1CB9FC"/>
</g>
<defs>
<filter id="filter0_f_20201_33672" x="-4" y="-3" width="190" height="205" filterUnits="userSpaceOnUse" color-interpolation-filters="sRGB">
<feFlood flood-opacity="0" result="BackgroundImageFix"/>
<feBlend mode="normal" in="SourceGraphic" in2="BackgroundImageFix" result="shape"/>
<feGaussianBlur stdDeviation="2" result="effect1_foregroundBlur_20201_33672"/>
</filter>
</defs>
</svg>
