<svg width="512" height="512" viewBox="0 0 512 512" fill="none" xmlns="http://www.w3.org/2000/svg">
<g clip-path="url(#clip0_102_306)">
<circle cx="256" cy="256" r="256" fill="white"/>
<path d="M377.108 290.116H133.76C128.661 290.116 124.498 294.52 124.966 299.718C130.309 361.463 186.682 410.064 255.434 410.064C324.186 410.064 380.559 361.486 385.902 299.718C386.348 294.52 382.207 290.116 377.108 290.116Z" fill="#FF6633"/>
<path d="M212.271 200.843C209.567 200.843 206.879 199.627 205.125 197.294C196.276 185.628 179.461 178.366 161.254 178.366C143.046 178.366 126.232 185.612 117.382 197.294C114.383 201.254 108.746 202.009 104.813 199.003C100.863 195.996 100.109 190.344 103.108 186.401C115.465 170.102 137.196 160.375 161.254 160.375C185.312 160.375 207.043 170.102 219.416 186.401C222.415 190.36 221.645 195.996 217.712 199.003C216.073 200.251 214.172 200.843 212.271 200.843Z" fill="#414141"/>
<path d="M401.751 200.843C399.047 200.843 396.359 199.627 394.606 197.294C385.756 185.628 368.942 178.366 350.734 178.366C332.527 178.366 315.713 185.612 306.863 197.294C303.864 201.254 298.226 202.009 294.293 199.003C290.343 195.996 289.59 190.344 292.589 186.401C304.945 170.102 326.676 160.375 350.734 160.375C374.792 160.375 396.523 170.102 408.896 186.401C411.896 190.36 411.125 195.996 407.192 199.003C405.553 200.251 403.652 200.843 401.751 200.843Z" fill="#414141"/>
</g>
<defs>
<clipPath id="clip0_102_306">
<rect width="512" height="512" fill="white"/>
</clipPath>
</defs>
</svg>
