<svg width="146" height="20" viewBox="0 0 146 20" fill="none" xmlns="http://www.w3.org/2000/svg">
<path d="M10.2626 0.57692C16.7852 0.57692 19.447 1.51193 19.447 4.5809C19.447 6.83554 16.9536 7.86605 14.3395 8.08223V8.46684C17.817 8.56233 20.7175 9.57029 20.7175 11.8952C20.7175 14.9642 17.1684 16.4987 10.431 16.4987C7.07427 16.4987 4.72414 16.4032 2.4695 16.4032C2.01326 16.4032 1.98939 16.1631 1.98939 15.5875V3.04642C1.07958 2.95093 0.69496 2.90318 0 2.71087V0.57692H10.2626ZM9.78382 3.23872C9.06499 3.23872 8.10478 3.2626 7.69762 3.35809V7.2427C8.39258 7.26658 9.18435 7.26658 9.71221 7.26658C12.2785 7.26658 13.6684 6.54774 13.6684 5.06101C13.6684 3.71883 12.4204 3.23872 9.78382 3.23872ZM9.99868 9.61671C9.56764 9.61671 8.51194 9.64058 7.69629 9.66446V13.6923C8.10345 13.7162 8.82361 13.7401 10.1897 13.7401C13.0676 13.7401 14.6737 12.9721 14.6737 11.4854C14.6751 10.0252 12.6844 9.61671 9.99868 9.61671Z" fill="#0093C6"/>
<path d="M46.7587 8.44165C46.7587 14.3409 42.0823 16.9788 36.016 16.9788C29.5173 16.9788 25.2971 13.9337 25.2971 8.44165C25.2971 2.90186 28.9656 0.00132751 36.016 0.00132751C43.1141 0.00132751 46.7587 2.90319 46.7587 8.44165ZM36.016 14.2215C39.3011 14.2215 40.5955 12.3037 40.5955 8.44298C40.5955 4.6061 39.3727 2.75995 36.016 2.75995C32.6592 2.75995 31.4603 4.6061 31.4603 8.44298C31.4603 12.3024 32.7308 14.2215 36.016 14.2215Z" fill="#0093C6"/>
<path d="M70.5688 0.576923L70.5449 6.23608C70.5449 6.76393 70.4494 6.95491 69.777 6.95491H66.0847C66.1086 5.18037 65.2452 2.95093 62.3433 2.95093C58.7226 2.95093 57.716 4.48541 57.716 8.44165C57.716 12.2308 58.651 14.1247 62.3924 14.1247C65.7014 14.1247 66.6603 12.3024 66.277 10.504L69.2982 10C72.7996 12.2056 69.9216 16.9775 62.4401 16.9775C54.6709 16.9775 51.5542 13.8369 51.5542 8.44032C51.5542 3.59682 54.5754 0 61.4574 0C64.9826 0 66.8765 1.43899 66.9004 3.02122H67.3314C67.3791 2.22944 67.5714 1.17507 67.7876 0.575597H70.5688V0.576923Z" fill="#0093C6"/>
<path d="M81.2628 8.99337L76.0837 3.07029C75.3649 2.9748 74.6925 2.85411 74.093 2.73475V0.57692H80.5201C81.0241 0.57692 81.1673 0.672411 81.4073 0.984082L85.8198 6.13926L89.7522 2.97347C89.3211 2.87798 88.4816 2.80504 87.9299 2.70955V0.600792L93.3251 0.57692C93.8768 0.57692 94.044 0.7931 94.044 1.12864V2.75862L87.7853 7.62599L93.2999 13.9085C94.0188 14.004 94.7389 14.1247 95.2906 14.244V16.4019H89.1036C88.6965 16.4019 88.2402 16.2334 87.7853 15.7069L83.2774 10.5995L78.9365 14.004C79.4166 14.0756 80.5426 14.1963 81.1421 14.2679V16.4019H75.1474C74.5002 16.4257 74.4047 16.1618 74.4047 15.8979V14.2188L81.2628 8.99337Z" fill="#0093C6"/>
<path d="M120.54 8.44228C120.54 14.3415 115.863 16.9794 109.797 16.9794C103.298 16.9794 99.0781 13.9343 99.0781 8.44228C99.0781 2.90248 102.747 0.00195312 109.797 0.00195312C116.895 0.00195312 120.54 2.90381 120.54 8.44228ZM109.798 14.2221C113.083 14.2221 114.378 12.3043 114.378 8.4436C114.378 4.60673 113.155 2.76058 109.798 2.76058C106.442 2.76058 105.243 4.60673 105.243 8.4436C105.241 12.303 106.513 14.2221 109.798 14.2221Z" fill="#0093C6"/>
<path d="M128.139 16.4032C127.971 17.2905 127.635 19.3528 127.371 20H124.254V13.6459H124.973C126.724 13.6459 127.802 12.0875 128.163 9.23342C128.331 7.89124 128.427 4.05437 128.355 3.11936C127.684 3.07162 126.7 2.87931 125.741 2.68833V0.57692H143.15C143.557 0.57692 143.773 0.745354 143.773 1.00795V13.6446H145.044C145.762 13.6446 145.907 13.813 145.907 14.1247V20H142.765C142.477 19.3289 142.166 17.2905 141.997 16.4032H128.139ZM129.171 13.6936L129.387 14.0292C130.106 13.6698 131.305 13.6698 132.529 13.6698L138.069 13.6459V3.33421H131.929C131.953 4.02917 131.834 8.20159 131.689 9.06499C131.281 11.4642 130.658 13.0225 129.171 13.6936Z" fill="#0093C6"/>
</svg>
