<svg width="515" height="515" viewBox="0 0 512 512" fill="none" xmlns="http://www.w3.org/2000/svg">
<g clip-path="url(#clip0_102_32)">
<circle cx="260" cy="256" r="256" fill="#fff"/>
<path d="M387.793 293.126H122.973C117.424 293.126 112.894 297.919 113.402 303.576C119.217 370.769 180.564 423.658 255.383 423.658C330.201 423.658 391.548 370.793 397.363 303.576C397.848 297.919 393.341 293.126 387.793 293.126Z" fill="#FF6633"/>
<path d="M208.412 195.976C205.47 195.976 202.545 194.653 200.636 192.114C191.006 179.419 172.708 171.516 152.894 171.516C133.08 171.516 114.782 179.401 105.151 192.114C101.888 196.423 95.7527 197.246 91.4724 193.973C87.1744 190.701 86.354 184.551 89.6177 180.259C103.065 162.522 126.713 151.938 152.894 151.938C179.075 151.938 202.723 162.522 216.188 180.259C219.452 184.569 218.613 190.701 214.333 193.973C212.55 195.332 210.481 195.976 208.412 195.976Z" fill="#414141"/>
<path d="M414.611 195.976C411.669 195.976 408.744 194.653 406.836 192.114C397.205 179.419 378.907 171.516 359.093 171.516C339.279 171.516 320.981 179.401 311.351 192.114C308.087 196.423 301.952 197.246 297.672 193.973C293.374 190.701 292.553 184.551 295.817 180.259C309.264 162.522 332.912 151.938 359.093 151.938C385.274 151.938 408.922 162.522 422.387 180.259C425.651 184.569 424.813 190.701 420.532 193.973C418.749 195.332 416.68 195.976 414.611 195.976Z" fill="#414141"/>
</g>
<defs>
<clipPath id="clip0_102_32">
<rect width="515" height="515" fill="red"/>
</clipPath>
</defs>
</svg>
