<svg width="146" height="20" viewBox="0 0 146 20" fill="none" xmlns="http://www.w3.org/2000/svg">
<path d="M19.7556 0.841949L19.8178 3.96749C19.8178 8.74634 19.4224 13.8343 18.6318 19.2252H11.1725C11.6507 15.2313 11.8907 11.2598 11.8907 7.31272C11.8907 5.94008 11.8596 4.57962 11.7974 3.23137H11.2675C10.0815 3.23137 9.09235 3.30455 8.30171 3.45096V4.6284C8.30171 9.55569 7.94782 14.42 7.24004 19.2252H0.124293C0.416035 16.602 0.561043 13.7346 0.561043 10.6213C0.561043 7.5079 0.374604 4.24815 0 0.841949H19.7556Z" fill="#D20D21"/>
<path d="M37.1081 8.23184L40.041 8.45148C40.3328 8.45148 40.5503 8.4393 40.697 8.41489L39.2297 11.6503H38.9483C38.553 11.6503 37.9902 11.5222 37.2634 11.2639C36.5349 11.0056 36.0153 10.8775 35.7029 10.8775C34.8501 10.8775 34.1734 11.5283 33.6745 12.8257C33.5916 14.0275 33.5295 15.2273 33.4881 16.4291C34.5704 16.6752 35.4232 16.7972 36.0481 16.7972H36.3295C37.2237 16.7972 37.9367 16.5654 38.4667 16.0977C38.9966 15.632 39.3764 14.7982 39.606 13.5984L43.352 13.7814C43.0396 15.8902 42.6236 17.7041 42.1039 19.2232H26.7797C26.3637 15.9146 26.1548 12.6304 26.1548 9.37065C26.1548 6.11087 26.2998 3.26798 26.5915 0.841949H43.321C42.9464 3.48963 42.6132 5.35236 42.3215 6.43015C41.0941 6.50335 39.9703 6.55215 38.95 6.57656C39.1157 6.01326 39.2003 5.48657 39.2003 4.99648C39.2003 3.81906 38.4511 3.23137 36.9527 3.23137C36.3917 3.23137 35.7667 3.30455 35.0797 3.45096C34.6222 5.77938 34.2683 7.82517 34.018 9.59029C34.8518 8.68536 35.8807 8.23184 37.1081 8.23184Z" fill="#D20D21"/>
<path d="M68.3503 19.2252H61.1413C60.7667 14.2979 59.705 9.92377 57.958 6.10069C56.8342 9.11645 56.2732 11.8862 56.2732 14.4098C56.2732 16.1261 56.5442 17.7306 57.0845 19.2252H48.9692C48.8242 18.2207 48.75 16.8724 48.75 15.1805C48.75 13.4886 48.9468 11.8475 49.3438 10.2532C50.863 9.73875 52.3182 8.86225 53.7131 7.62382C55.1062 6.38742 56.1057 5.06766 56.7099 3.67061C56.2524 2.81245 55.6586 1.8689 54.9301 0.83992H65.2602C67.3197 6.06208 68.3503 12.1912 68.3503 19.2252Z" fill="#D20D21"/>
<path d="M74.0612 19.2252C73.583 16.8724 73.343 13.8079 73.343 10.0336C73.343 6.25932 73.6348 3.19477 74.2165 0.841949H81.9261C81.5929 3.17037 81.3737 5.26694 81.2701 7.12967C84.9109 7.61976 88.1459 8.69753 90.977 10.365C90.9149 13.6248 90.5817 16.5776 89.9775 19.2252H74.0612V19.2252ZM81.2097 9.66551C81.2097 12.2644 81.4704 14.6416 81.99 16.7972C83.0724 15.2293 83.7577 13.1815 84.0494 10.6579C83.1328 10.0946 82.1868 9.76515 81.2097 9.66551ZM100.653 4.59181C100.653 9.71432 100.299 14.5928 99.5912 19.2252H92.5065C92.7758 16.8236 92.9122 13.9502 92.9122 10.603C92.9122 7.2578 92.7258 4.00412 92.3512 0.841949H100.591C100.632 2.50946 100.653 3.76008 100.653 4.59181Z" fill="#D20D21"/>
<path d="M118.411 3.08496C117.683 2.93855 116.98 2.86532 116.305 2.86532C115.629 2.86532 114.812 2.99954 113.856 3.27C113.543 4.81346 113.388 6.32236 113.388 7.79261C113.388 11.5913 114.824 14.5094 117.695 16.543C119.609 15.0483 121.336 13.1856 122.875 10.9548C122.938 11.935 122.989 13.4317 123.031 15.4408C121.491 16.8623 119.92 17.9787 118.318 18.786C116.716 19.5954 114.719 20 112.326 20H111.608C109.735 19.0443 108.262 17.635 107.192 15.7723C106.12 13.9095 105.585 11.9492 105.585 9.88922C105.585 7.14392 106.541 4.80942 108.456 2.88568C110.37 0.961938 113.148 3.05176e-05 116.789 3.05176e-05C118.827 3.05176e-05 120.959 0.307101 123.186 0.9192C122.853 2.46267 122.437 3.92276 121.938 5.29337C120.628 5.43979 119.274 5.51301 117.881 5.51301C118.088 4.82567 118.266 4.01633 118.411 3.08496Z" fill="#D20D21"/>
<path d="M129.022 19.2252C128.524 16.7748 128.273 13.7041 128.273 10.0153C128.273 6.32641 128.575 3.26798 129.178 0.841949H136.856C136.523 3.12156 136.306 5.20595 136.2 7.09308C139.841 7.58317 143.076 8.66094 145.907 10.3284C145.845 13.6126 145.522 16.5796 144.941 19.2252H129.022V19.2252ZM136.138 9.62892C136.138 12.2034 136.399 14.5806 136.918 16.7606C138.022 15.1419 138.707 13.0961 138.978 10.6213C138.063 10.058 137.117 9.72856 136.138 9.62892Z" fill="#D20D21"/>
</svg>
