<svg width="146" height="20" viewBox="0 0 146 20" fill="none" xmlns="http://www.w3.org/2000/svg">
<path d="M0 0.00120544H10.5582V3.3483C10.5582 8.67014 8.2157 11.331 3.53059 11.331V19.8571H0V0.00120544ZM6.00288 7.56937C6.68509 6.83593 7.02766 5.80965 7.02766 4.49395V2.66331H3.53059V8.6713C4.4956 8.67012 5.31921 8.30399 6.00288 7.56937Z" fill="#AA111D"/>
<path d="M15.2883 0.00195312H25.8466V19.8578H22.316V9.84365C21.539 9.84365 20.8335 9.77755 20.1979 9.64291C19.2562 10.1578 18.832 11.1405 18.9268 12.5896L19.4924 19.8567H15.9968L15.4676 12.5896L15.4326 11.9885C15.4326 10.3291 16.0565 9.04177 17.3044 8.12645C15.9618 6.79185 15.2912 4.70253 15.2912 1.86091V0.00195312H15.2883ZM19.8437 6.08203C20.5259 6.81665 21.3495 7.18391 22.316 7.18391V2.66406H18.8204V3.00771C18.8189 4.32222 19.16 5.34859 19.8437 6.08203Z" fill="#AA111D"/>
<path d="M31.9941 0.00195312H41.9868V5.60961H38.4562V2.66285H35.5247V6.89695C37.5495 6.89695 39.22 7.33982 40.5393 8.22679C41.8571 9.11377 42.5174 10.4921 42.5174 12.3605L42.4824 12.9617L41.9533 19.8567H31.9956V0.00195312H31.9941ZM38.6326 17.1969L38.9854 12.9628C39.1734 10.6929 38.0203 9.55785 35.5247 9.55785V17.1969H38.6326Z" fill="#AA111D"/>
<path d="M47.9863 0.00121104H51.5169V7.83984L55.0125 5.43644V0H58.5081V19.8559H55.0125V8.92644L51.5169 11.3299V19.8559H47.9863V0.00121104V0.00121104Z" fill="#AA111D"/>
<path d="M64.6533 0.00195312H68.1839V7.18276H71.6445V0.00195312H75.1751V19.8578H71.6445V9.84365H68.1839V19.8578H64.6533V0.00195312Z" fill="#AA111D"/>
<path d="M84.0766 0.00120544L85.6655 8.81305H86.2311L87.7851 0.00120544H92.5168V2.6621H90.8565L88.7734 12.9905C89.7151 13.2007 90.4512 13.6011 90.9804 14.1916C91.5095 14.7833 91.7748 15.5274 91.7748 16.4238C91.7748 17.5493 91.374 18.4269 90.5737 19.0564C89.7734 19.6859 88.702 20 87.3609 20H84.995C83.6524 20 82.581 19.6859 81.7822 19.0564C80.9819 18.4269 80.581 17.5493 80.581 16.4238C80.581 15.2982 80.9804 14.4207 81.7822 13.7912C82.5825 13.1617 83.6539 12.8476 84.995 12.8476H85.5241L85.772 11.4739H82.8769L80.4761 0.00120544H84.0766V0.00120544ZM85.4892 17.482H86.8667C87.9731 17.482 88.527 17.1289 88.527 16.4238C88.527 15.7187 87.9731 15.3656 86.8667 15.3656H85.4892C84.3828 15.3656 83.8288 15.7187 83.8288 16.4238C83.8303 17.13 84.3828 17.482 85.4892 17.482Z" fill="#AA111D"/>
<path d="M101.134 0.00120544V17.1962H103.852L103.817 0.00120544H107.348V17.1962H110.067L110.032 0.00120544H113.562V19.8571H97.6366L97.6016 0.00120544H101.134Z" fill="#AA111D"/>
<path d="M119.708 0.00195312H123.238V6.63946C123.591 6.65835 124.097 6.70677 124.757 6.78236L126.135 0.00195312H130.69V2.66285H128.925L127.76 7.78389C129.479 8.83267 130.256 10.4732 130.091 12.7053L129.562 19.8578H126.03L126.595 12.7053L126.63 12.2188C126.63 11.2657 126.347 10.5594 125.783 10.1011C125.218 9.64289 124.371 9.38542 123.241 9.32873V19.8578H119.71V0.00195312H119.708Z" fill="#AA111D"/>
<path d="M137.186 5.91001C138.503 4.92737 140.222 4.43605 142.342 4.43605L142.377 2.6621H135.773V0.00120544H145.907V19.8571H142.377V13.3908H139.057L139.445 19.8571H135.915L135.385 10.5019C135.267 8.42328 135.868 6.89265 137.186 5.91001ZM138.881 10.7311H142.377V7.09695C141.199 7.09695 140.305 7.3639 139.693 7.89774C139.081 8.43157 138.81 9.29965 138.881 10.5008V10.7311Z" fill="#AA111D"/>
</svg>
