<svg width="152" height="32" fill="none" xmlns="http://www.w3.org/2000/svg"><path d="M35.669 16.819H4.286c-.657 0-1.194.557-1.134 1.215C3.842 25.85 11.112 32 19.978 32s16.136-6.148 16.825-13.966c.058-.658-.477-1.215-1.134-1.215z" fill="#F63"/><path fill-rule="evenodd" clip-rule="evenodd" d="M.225 3.331C1.79 1.28 4.606 0 7.711 0c3.104 0 5.922 1.279 7.486 3.331a1.1 1.1 0 0 1-.211 1.544 1.106 1.106 0 0 1-1.548-.21c-1.072-1.408-3.181-2.461-5.727-2.461-2.546 0-4.655 1.053-5.727 2.46a1.106 1.106 0 0 1-1.548.211 1.1 1.1 0 0 1-.21-1.544zM24.767 3.331C26.331 1.28 29.148 0 32.253 0c3.102 0 5.92 1.279 7.485 3.33a1.1 1.1 0 0 1-.21 1.545 1.106 1.106 0 0 1-1.547-.21c-1.075-1.408-3.186-2.461-5.728-2.461-2.546 0-4.655 1.053-5.727 2.46a1.106 1.106 0 0 1-1.548.211 1.1 1.1 0 0 1-.21-1.544z" fill="#414141"/><path d="M57.953 18.218c-.206.152-.45.27-.729.37-.277.098-.529.144-.76.144-.748 0-1.39-.257-1.913-.764a2.526 2.526 0 0 1-.781-1.875c0-.744.258-1.37.78-1.883.524-.52 1.166-.777 1.913-.777.232 0 .49.053.775.152.284.099.53.23.748.395.185.131.397.112.496-.027l1.006-1.467c.086-.125.046-.323-.113-.435a5.015 5.015 0 0 0-1.41-.69c-.549-.185-1.052-.277-1.502-.277a5.13 5.13 0 0 0-1.998.395 4.971 4.971 0 0 0-1.622 1.06c-.45.44-.807.973-1.072 1.592a4.927 4.927 0 0 0-.397 1.962c0 .69.132 1.342.397 1.961a4.903 4.903 0 0 0 1.072 1.593c.457.44.993.796 1.622 1.06a5.247 5.247 0 0 0 1.998.388c.464 0 .967-.086 1.51-.263.549-.178.999-.402 1.356-.672.166-.112.238-.31.159-.434l-.986-1.488c-.106-.151-.344-.158-.55-.02zM60.725 20.542c0 .217.133.342.351.342h6.354c.218 0 .357-.131.357-.342V19.12c0-.27-.185-.447-.483-.447h-4.203v-1.64h3.19c.239 0 .384-.13.384-.348v-1.25c0-.231-.145-.363-.384-.363h-3.19V13.48h4.203c.232 0 .35-.119.35-.35v-1.513c0-.217-.132-.349-.35-.349h-6.228c-.218 0-.35.132-.35.349v8.925zM75.173 15.79c.55-.362.894-1.04.894-1.744 0-.876-.285-1.56-.848-2.047-.562-.488-1.35-.731-2.369-.731h-3.474c-.173 0-.259.085-.259.25v9.116c0 .165.086.25.258.25h3.753c1.066 0 1.893-.256 2.482-.763.596-.507.893-1.218.893-2.133 0-.48-.119-.921-.357-1.323a2.116 2.116 0 0 0-.973-.875zm-2.35-2.383c.523 0 .848.31.848.81s-.325.816-.847.816H71.52v-1.626h1.304zm-1.303 5.338v-1.928h1.575c.615 0 1.006.362 1.006.947 0 .6-.39.981-1.006.981H71.52zM77.695 20.542c0 .217.132.342.35.342H84.4c.218 0 .357-.131.357-.342V19.12c0-.27-.185-.447-.483-.447H80.07v-1.64h3.19c.239 0 .384-.13.384-.348v-1.25c0-.231-.145-.363-.384-.363h-3.19V13.48h4.203c.232 0 .35-.119.35-.35v-1.513c0-.217-.132-.349-.35-.349h-6.228c-.218 0-.35.132-.35.349v8.925zM88.145 11.268H86.43c-.206 0-.344.151-.344.355v8.919c0 .217.125.349.344.349h1.694c.231 0 .364-.132.364-.349v-2.62h1.158c1.032 0 1.866-.302 2.508-.901.642-.606.967-1.409.967-2.41 0-1.013-.325-1.823-.967-2.428-.642-.612-1.475-.915-2.508-.915h-1.502zm.344 4.489v-2.324h1.059c.337 0 .622.112.84.336.225.217.338.494.338.83 0 .335-.113.612-.338.829a1.15 1.15 0 0 1-.84.329h-1.06zM100.388 11.268H97.43c-1.032 0-1.873.303-2.515.915-.642.605-.96 1.415-.96 2.422 0 1.204.55 2.198 1.496 2.758l-1.694 3.126c-.106.191.013.402.225.402h1.979c.192 0 .278-.066.404-.296l1.416-2.712h.986v2.659c0 .217.132.349.364.349h1.694c.219 0 .344-.132.344-.349v-8.925c0-.204-.139-.349-.344-.349h-.437zm-2.859 4.555c-.337 0-.622-.119-.847-.356a1.265 1.265 0 0 1-.33-.875c0-.342.112-.619.33-.836.219-.217.503-.33.847-.33h1.238v2.397h-1.238zM109.038 11.268c-.165 0-.251.085-.251.257v3.324h-3.62v-3.324c0-.171-.086-.257-.252-.257h-1.866c-.172 0-.258.085-.258.257v9.11c0 .17.086.256.258.256h1.866c.166 0 .252-.086.252-.257v-3.62h3.62v3.62c0 .171.086.257.251.257h1.873c.166 0 .252-.086.252-.257v-9.11c0-.17-.086-.256-.252-.256h-1.873zM112.341 16.1c0 .684.132 1.335.39 1.954a5.034 5.034 0 0 0 1.066 1.586 5.112 5.112 0 0 0 3.58 1.448 5.01 5.01 0 0 0 2.542-.658 4.847 4.847 0 0 0 1.82-1.81 4.942 4.942 0 0 0 .668-2.52c0-.692-.132-1.344-.397-1.962a4.746 4.746 0 0 0-1.065-1.6 4.911 4.911 0 0 0-1.602-1.053 4.948 4.948 0 0 0-1.966-.395c-.695 0-1.35.132-1.972.395a5.003 5.003 0 0 0-1.608 1.053 5.04 5.04 0 0 0-1.456 3.56zm2.396 0c0-.738.258-1.357.767-1.864a2.566 2.566 0 0 1 1.873-.763 2.55 2.55 0 0 1 1.867.763c.509.507.767 1.126.767 1.863 0 .73-.258 1.343-.767 1.85-.51.506-1.132.757-1.867.757-.741 0-1.37-.25-1.879-.757-.51-.507-.761-1.12-.761-1.85zM129.303 11.261c-.185 0-.337.165-.337.356v2.712c0 .493-.159.888-.47 1.184-.311.296-.722.448-1.244.448-1.039 0-1.655-.612-1.655-1.646v-2.698c0-.204-.159-.356-.371-.356h-1.7c-.179 0-.325.165-.325.356v2.705c0 1.198.358 2.159 1.072 2.883.715.717 1.642 1.08 2.78 1.08.741 0 1.436-.297 1.913-.751v3.008c0 .19.145.342.337.342h1.714a.347.347 0 0 0 .345-.349v-8.918c0-.204-.139-.356-.325-.356h-1.734zM138.714 15.803l3.078-4.08c.159-.212.092-.435-.152-.435h-2.178c-.231 0-.357.026-.509.23l-2.509 3.35h-1.065v-3.343c0-.165-.086-.25-.252-.25h-1.886c-.172 0-.258.085-.258.25v9.103c0 .17.086.256.258.256h1.886c.166 0 .252-.085.252-.256v-3.509h1.363l2.436 3.634a.442.442 0 0 0 .344.151h2.197c.232 0 .291-.23.159-.421l-3.164-4.68zM148.192 11.584a.488.488 0 0 0-.437-.323h-1.397a.498.498 0 0 0-.45.323l-3.534 8.919c-.086.23.013.388.258.388h1.873a.442.442 0 0 0 .43-.316l.431-1.257h3.355l.437 1.263c.073.185.238.316.423.316h1.88c.258 0 .344-.17.258-.388l-3.527-8.925zm-1.152 2.83.999 2.916h-1.998l.999-2.916z" fill="#414141"/></svg>