<svg width="24" height="24" fill="none" xmlns="http://www.w3.org/2000/svg"><path fill-rule="evenodd" clip-rule="evenodd" d="m11.332 1.898-7.998 4h-.001A1.5 1.5 0 0 0 2.5 7.24v9.524a1.5 1.5 0 0 0 .824 1.349l8 4a1.5 1.5 0 0 0 1.342 0l8-4h.002a1.5 1.5 0 0 0 .832-1.343V7.24a1.5 1.5 0 0 0-.832-1.342h-.002l-7.998-4a1.502 1.502 0 0 0-1.335 0zm-.445-.896a2.5 2.5 0 0 1 2.226 0l8 4A2.5 2.5 0 0 1 22.5 7.24v9.53a2.5 2.5 0 0 1-1.387 2.237l-8 4a2.5 2.5 0 0 1-2.237 0l-8-4A2.5 2.5 0 0 1 1.5 16.758V7.24a2.5 2.5 0 0 1 1.387-2.237l8-4z" fill="#414141"/><path fill-rule="evenodd" clip-rule="evenodd" d="M1.873 5.936a.5.5 0 0 1 .671-.223L12 10.44l9.457-4.728a.5.5 0 1 1 .447.894l-9.68 4.84a.5.5 0 0 1-.447 0l-9.68-4.84a.5.5 0 0 1-.224-.67z" fill="#414141"/><path fill-rule="evenodd" clip-rule="evenodd" d="M12 10.5a.5.5 0 0 1 .5.5v11.76a.5.5 0 0 1-1 0V11a.5.5 0 0 1 .5-.5zM6.553 3.276a.5.5 0 0 1 .67-.223l10 5a.5.5 0 1 1-.447.894l-10-5a.5.5 0 0 1-.223-.67z" fill="#414141"/></svg>